Units are S.I. units (second, meters, Newtons, ...)
Angles are in degrees.
name squat
datarows 29
datacolumns 19
range 3.00752 3.28822
endheader
time	exo_pelvis_tx	exo_pelvis_ty	exo_pelvis_tilt	exo_hip_r	exo_hip_l	exo_knee_r	exo_knee_l	r_ankle_coupling	l_ankle_coupling	planar_xdot	planar_zdot	planar_rotydot	exo_hip_rdot	exo_hip_ldot	exo_knee_rdot	exo_knee_ldot	r_ankle_couplingdot	l_ankle_couplingdot	
3.00752	-0.372187	0.888112	-0.221342	-3.82872	-3.82872	-9.94397	-9.94397	13.9942	13.9942	-0.0559754	0.515703	2.83535	-31.7233	-31.7227	68.6866	68.6853	-39.6164	-39.6159	
3.01754	-0.372109	0.888385	-0.207539	-4.13578	-4.13578	-9.25603	-9.25603	13.5995	13.5995	-0.203068	0.381954	2.9806	-31.6894	-31.6888	68.6693	68.668	-39.785	-39.7844	
3.02757	-0.372072	0.888639	-0.19353	-4.43368	-4.43368	-8.58307	-8.58307	13.2104	13.2104	-0.353404	0.260121	3.11107	-31.576	-31.5754	68.5167	68.5153	-39.8837	-39.8832	
3.03759	-0.372077	0.888873	-0.179358	-4.72188	-4.72188	-7.92617	-7.92617	12.8276	12.8276	-0.508226	0.150566	3.22476	-31.3701	-31.3695	68.2071	68.2057	-39.902	-39.9014	
3.04762	-0.372124	0.889089	-0.165069	-4.99979	-4.99979	-7.28639	-7.28639	12.4514	12.4514	-0.668776	0.0536507	3.31966	-31.0588	-31.0581	67.7191	67.7177	-39.8291	-39.8285	
3.05764	-0.372215	0.889289	-0.150705	-5.26685	-5.26685	-6.66479	-6.66479	12.0825	12.0825	-0.836294	-0.0302643	3.39377	-30.629	-30.6283	67.031	67.0296	-39.6543	-39.6537	
3.06767	-0.37235	0.889472	-0.136311	-5.52248	-5.52248	-6.06244	-6.06244	11.7214	11.7214	-1.01202	-0.100817	3.4451	-30.0678	-30.0671	66.1213	66.1198	-39.3669	-39.3663	
3.07769	-0.37253	0.889641	-0.121931	-5.76613	-5.76613	-5.4804	-5.4804	11.3686	11.3686	-1.1972	-0.157646	3.47163	-29.3622	-29.3615	64.9683	64.9668	-38.9562	-38.9557	
3.08772	-0.372757	0.889796	-0.107608	-5.99723	-5.99723	-4.91974	-4.91974	11.0247	11.0247	-1.39307	-0.20039	3.47136	-28.4992	-28.4985	63.5505	63.5491	-38.4116	-38.4111	
3.09774	-0.373029	0.889938	-0.0933864	-6.21519	-6.21519	-4.38153	-4.38153	10.6903	10.6903	-1.60088	-0.228686	3.4423	-27.4659	-27.4652	61.8463	61.8449	-37.7224	-37.7218	
3.10777	-0.373349	0.890069	-0.0793105	-6.41946	-6.41946	-3.86682	-3.86682	10.3657	10.3657	-1.82187	-0.242175	3.38244	-26.2492	-26.2486	59.8341	59.8328	-36.8777	-36.8772	
3.11779	-0.373718	0.890188	-0.065424	-6.60946	-6.60946	-3.37668	-3.37668	10.0517	10.0517	-2.05727	-0.240493	3.28979	-24.8363	-24.8357	57.4924	57.4911	-35.8671	-35.8665	
3.12782	-0.374135	0.890298	-0.0517707	-6.78463	-6.78463	-2.91218	-2.91218	9.74874	9.74874	-2.30833	-0.22328	3.16233	-23.2141	-23.2135	54.7994	54.7982	-34.6796	-34.6792	
3.13784	-0.374602	0.890399	-0.0383947	-6.9444	-6.9444	-2.47439	-2.47439	9.45734	9.45734	-2.57629	-0.190173	2.99807	-21.3696	-21.3691	51.7338	51.7327	-33.3048	-33.3043	
3.14787	-0.375119	0.890492	-0.0253399	-7.0882	-7.0882	-2.06436	-2.06436	9.17805	9.17805	-2.86239	-0.140812	2.79501	-19.29	-19.2895	48.2738	48.2728	-31.7318	-31.7314	
3.15789	-0.375688	0.890579	-0.0126501	-7.21546	-7.21546	-1.68315	-1.68315	8.91141	8.91141	-3.16788	-0.0748349	2.55114	-16.9621	-16.9617	44.3979	44.397	-29.9499	-29.9496	
3.16792	-0.376309	0.89066	-0.000369454	-7.3256	-7.3256	-1.33185	-1.33185	8.65797	8.65797	-3.494	0.00812	2.26446	-14.373	-14.3727	40.0845	40.0838	-27.9486	-27.9483	
3.17794	-0.376983	0.890736	0.0114583	-7.41807	-7.41807	-1.0115	-1.0115	8.41827	8.41827	-3.84198	0.108414	1.93297	-11.5098	-11.5096	35.312	35.3115	-25.717	-25.7168	
3.18797	-0.377711	0.890808	0.0227891	-7.4923	-7.4923	-0.723182	-0.723182	8.19284	8.19284	-4.21306	0.226409	1.55468	-8.35953	-8.35939	30.0588	30.0585	-23.2445	-23.2444	
3.19799	-0.378493	0.890878	0.033579	-7.54771	-7.54771	-0.46795	-0.46795	7.98223	7.98223	-4.6085	0.362467	1.12756	-4.9091	-4.90908	24.3034	24.3034	-20.5204	-20.5204	
3.20802	-0.379338	0.890949	0.0437373	-7.58161	-7.58161	-0.250319	-0.250319	7.78835	7.78835	-5.01213	0.506759	0.676872	-1.33218	-1.33227	18.3376	18.3378	-17.6884	-17.6885	
3.21805	-0.380258	0.891026	0.0531557	-7.59003	-7.59003	-0.0768023	-0.0768023	7.61383	7.61383	-5.38887	0.638679	0.257332	1.99625	1.99605	12.791	12.7914	-15.0585	-15.0587	
3.22807	-0.38125	0.891108	0.0618465	-7.57402	-7.57402	0.0543758	0.0543758	7.45795	7.45795	-5.73812	0.758032	-0.130311	5.07167	5.07138	7.67011	7.67071	-12.6335	-12.6338	
3.2381	-0.382309	0.891197	0.0698255	-7.53479	-7.53479	0.145227	0.145227	7.31989	7.31989	-6.06033	0.86526	-0.487007	7.9012	7.90083	2.96218	2.96295	-10.4067	-10.407	
3.24812	-0.383431	0.89129	0.0771083	-7.47355	-7.47355	0.197764	0.197764	7.19883	7.19883	-6.35599	0.960807	-0.813707	10.492	10.4915	-1.34573	-1.34481	-8.37131	-8.37169	
3.25815	-0.384613	0.891389	0.0837108	-7.39151	-7.39151	0.213997	0.213997	7.09395	7.09395	-6.62557	1.04512	-1.11136	12.8511	12.8506	-5.26651	-5.26545	-6.52051	-6.52093	
3.26817	-0.385849	0.891492	0.0896487	-7.28986	-7.28986	0.195939	0.195939	7.00442	7.00442	-6.86952	1.11863	-1.38092	14.9856	14.9851	-8.81303	-8.81187	-4.84753	-4.848	
3.2782	-0.387136	0.8916	0.0949376	-7.16981	-7.16981	0.145601	0.145601	6.92943	6.92943	-7.08833	1.18179	-1.62333	16.9028	16.9021	-11.9982	-11.9969	-3.34561	-3.34612	
3.28822	-0.38847	0.891712	0.0995934	-7.03258	-7.03258	0.0649955	0.0649955	6.86814	6.86814	-7.28246	1.23504	-1.83955	18.6096	18.6089	-14.8349	-14.8336	-2.00797	-2.0085	
